<svg width="61" height="61" viewBox="0 0 61 61" fill="none" xmlns="http://www.w3.org/2000/svg">
<g clip-path="url(#clip0_3_1036)">
<path d="M60.5 30.0029C60.5 22.0464 57.3393 14.4158 51.7132 8.78973C46.0871 3.16364 38.4565 0.00292969 30.5 0.00292969C22.5435 0.00292969 14.9129 3.16364 9.2868 8.78973C3.66071 14.4158 0.5 22.0464 0.5 30.0029C0.5 37.9594 3.66071 45.59 9.2868 51.2161C14.9129 56.8422 22.5435 60.0029 30.5 60.0029C38.4565 60.0029 46.0871 56.8422 51.7132 51.2161C57.3393 45.59 60.5 37.9594 60.5 30.0029ZM32.375 43.1279C32.375 43.6252 32.1775 44.1021 31.8258 44.4538C31.4742 44.8054 30.9973 45.0029 30.5 45.0029C30.0027 45.0029 29.5258 44.8054 29.1742 44.4538C28.8225 44.1021 28.625 43.6252 28.625 43.1279V21.4042L20.5775 29.4554C20.2254 29.8075 19.7479 30.0053 19.25 30.0053C18.7521 30.0053 18.2746 29.8075 17.9225 29.4554C17.5704 29.1034 17.3726 28.6258 17.3726 28.1279C17.3726 27.63 17.5704 27.1525 17.9225 26.8004L29.1725 15.5504C29.3467 15.3758 29.5536 15.2373 29.7814 15.1428C30.0092 15.0482 30.2534 14.9996 30.5 14.9996C30.7466 14.9996 30.9908 15.0482 31.2186 15.1428C31.4464 15.2373 31.6533 15.3758 31.8275 15.5504L43.0775 26.8004C43.4296 27.1525 43.6274 27.63 43.6274 28.1279C43.6274 28.6258 43.4296 29.1034 43.0775 29.4554C42.7254 29.8075 42.2479 30.0053 41.75 30.0053C41.2521 30.0053 40.7746 29.8075 40.4225 29.4554L32.375 21.4042V43.1279Z" fill="#F74C5D"/>
</g>
<defs>
<clipPath id="clip0_3_1036">
<rect width="60" height="60" fill="white" transform="translate(0.5 0.00292969)"/>
</clipPath>
</defs>
</svg>
