<svg width="101" height="100" viewBox="0 0 101 100" fill="none" xmlns="http://www.w3.org/2000/svg">
<circle cx="50.5" cy="50" r="50" fill="#FDE2E5"/>
<g clip-path="url(#clip0_5_14)">
<path fill-rule="evenodd" clip-rule="evenodd" d="M71.6344 25.2344C71.8607 25.3744 72.0475 25.5698 72.1772 25.8023C72.3068 26.0347 72.3749 26.2964 72.375 26.5625V73.4375C72.375 73.8519 72.2104 74.2493 71.9174 74.5424C71.6243 74.8354 71.2269 75 70.8125 75H61.4375C61.0231 75 60.6257 74.8354 60.3326 74.5424C60.0396 74.2493 59.875 73.8519 59.875 73.4375V68.75H56.75V73.4375C56.75 73.8519 56.5854 74.2493 56.2924 74.5424C55.9993 74.8354 55.6019 75 55.1875 75H27.0625C26.6481 75 26.2507 74.8354 25.9576 74.5424C25.6646 74.2493 25.5 73.8519 25.5 73.4375V56.25C25.5002 55.9222 25.6036 55.6028 25.7954 55.3369C25.9872 55.0711 26.2577 54.8723 26.5688 54.7688L44.25 48.875V39.0625C44.25 38.7726 44.3307 38.4884 44.483 38.2417C44.6353 37.995 44.8533 37.7955 45.1125 37.6656L70.1125 25.1656C70.351 25.0463 70.616 24.9899 70.8824 25.002C71.1488 25.014 71.4076 25.094 71.6344 25.2344ZM44.25 52.1688L28.625 57.375V71.875H44.25V52.1688ZM47.375 71.875H53.625V67.1875C53.625 66.7731 53.7896 66.3757 54.0826 66.0826C54.3757 65.7896 54.7731 65.625 55.1875 65.625H61.4375C61.8519 65.625 62.2493 65.7896 62.5424 66.0826C62.8354 66.3757 63 66.7731 63 67.1875V71.875H69.25V29.0906L47.375 40.0281V71.875Z" fill="#F46F7C"/>
<path d="M31.75 59.375H34.875V62.5H31.75V59.375ZM38 59.375H41.125V62.5H38V59.375ZM31.75 65.625H34.875V68.75H31.75V65.625ZM38 65.625H41.125V68.75H38V65.625ZM50.5 53.125H53.625V56.25H50.5V53.125ZM56.75 53.125H59.875V56.25H56.75V53.125ZM50.5 59.375H53.625V62.5H50.5V59.375ZM56.75 59.375H59.875V62.5H56.75V59.375ZM63 53.125H66.125V56.25H63V53.125ZM63 59.375H66.125V62.5H63V59.375ZM50.5 46.875H53.625V50H50.5V46.875ZM56.75 46.875H59.875V50H56.75V46.875ZM63 46.875H66.125V50H63V46.875ZM50.5 40.625H53.625V43.75H50.5V40.625ZM56.75 40.625H59.875V43.75H56.75V40.625ZM63 40.625H66.125V43.75H63V40.625ZM63 34.375H66.125V37.5H63V34.375Z" fill="#F46F7C"/>
</g>
<defs>
<clipPath id="clip0_5_14">
<rect width="50" height="50" fill="white" transform="translate(25.5 25)"/>
</clipPath>
</defs>
</svg>
