<svg width="101" height="100" viewBox="0 0 101 100" fill="none" xmlns="http://www.w3.org/2000/svg">
<circle cx="50.5" cy="50" r="50" fill="#FDE2E5"/>
<g clip-path="url(#clip0_5_39)">
<path d="M45.8125 28.125C44.5693 28.125 43.377 28.6189 42.4979 29.4979C41.6189 30.377 41.125 31.5693 41.125 32.8125V34.375H30.1875C28.9443 34.375 27.752 34.8689 26.8729 35.7479C25.9939 36.627 25.5 37.8193 25.5 39.0625V64.0625C25.5 65.3057 25.9939 66.498 26.8729 67.3771C27.752 68.2561 28.9443 68.75 30.1875 68.75H70.8125C72.0557 68.75 73.248 68.2561 74.1271 67.3771C75.0061 66.498 75.5 65.3057 75.5 64.0625V39.0625C75.5 37.8193 75.0061 36.627 74.1271 35.7479C73.248 34.8689 72.0557 34.375 70.8125 34.375H59.875V32.8125C59.875 31.5693 59.3811 30.377 58.5021 29.4979C57.623 28.6189 56.4307 28.125 55.1875 28.125H45.8125ZM45.8125 31.25H55.1875C55.6019 31.25 55.9993 31.4146 56.2924 31.7076C56.5854 32.0007 56.75 32.3981 56.75 32.8125V34.375H44.25V32.8125C44.25 32.3981 44.4146 32.0007 44.7076 31.7076C45.0007 31.4146 45.3981 31.25 45.8125 31.25ZM51.7062 52.8562L72.375 47.3469V64.0625C72.375 64.4769 72.2104 64.8743 71.9174 65.1674C71.6243 65.4604 71.2269 65.625 70.8125 65.625H30.1875C29.7731 65.625 29.3757 65.4604 29.0826 65.1674C28.7896 64.8743 28.625 64.4769 28.625 64.0625V47.3438L49.2937 52.8562C50.0841 53.0667 50.9159 53.0667 51.7062 52.8562ZM30.1875 37.5H70.8125C71.2269 37.5 71.6243 37.6646 71.9174 37.9576C72.2104 38.2507 72.375 38.6481 72.375 39.0625V44.1125L50.9031 49.8375C50.639 49.908 50.361 49.908 50.0969 49.8375L28.625 44.1125V39.0625C28.625 38.6481 28.7896 38.2507 29.0826 37.9576C29.3757 37.6646 29.7731 37.5 30.1875 37.5Z" fill="#F46F7C"/>
</g>
<defs>
<clipPath id="clip0_5_39">
<rect width="50" height="50" fill="white" transform="translate(25.5 25)"/>
</clipPath>
</defs>
</svg>
