<svg width="101" height="100" viewBox="0 0 101 100" fill="none" xmlns="http://www.w3.org/2000/svg">
<circle cx="50.5" cy="50" r="50" fill="#FDE2E5"/>
<path d="M70.7292 43.1458C73.3333 40.5417 72.1458 37.5 70.7292 36.0208L64.4792 29.7708C61.8542 27.1667 58.8333 28.3542 57.3542 29.7708L53.8125 33.3333H48.4167C44.4583 33.3333 42.1667 35.4167 41 37.8125L31.75 47.0625V55.3958L30.2708 56.8542C27.6667 59.4792 28.8542 62.5 30.2708 63.9792L36.5208 70.2292C37.6458 71.3542 38.8542 71.7708 40 71.7708C41.4792 71.7708 42.8333 71.0417 43.6458 70.2292L49.2708 64.5833H56.75C60.2917 64.5833 62.0833 62.375 62.7292 60.2083C65.0833 59.5833 66.375 57.7917 66.8958 56.0417C70.125 55.2083 71.3333 52.1458 71.3333 50V43.75H70.1042L70.7292 43.1458ZM67.1667 50C67.1667 50.9375 66.7708 52.0833 65.0833 52.0833H63V54.1667C63 55.1042 62.6042 56.25 60.9167 56.25H58.8333V58.3333C58.8333 59.2708 58.4375 60.4167 56.75 60.4167H47.5625L40.7292 67.25C40.0833 67.8542 39.7083 67.5 39.4792 67.2708L33.25 61.0625C32.6458 60.4167 33 60.0417 33.2292 59.8125L35.9167 57.1042V48.7708L40.0833 44.6042V47.9167C40.0833 50.4375 41.75 54.1667 46.3333 54.1667C50.9167 54.1667 52.5833 50.4375 52.5833 47.9167H67.1667V50ZM67.7708 40.1875L64.2292 43.75H48.4167V47.9167C48.4167 48.8542 48.0208 50 46.3333 50C44.6458 50 44.25 48.8542 44.25 47.9167V41.6667C44.25 40.7083 44.6042 37.5 48.4167 37.5H55.5208L60.2708 32.75C60.9167 32.1458 61.2917 32.5 61.5208 32.7292L67.75 38.9375C68.3542 39.5833 68 39.9583 67.7708 40.1875Z" fill="#F46F7C"/>
</svg>
