<svg width="101" height="100" viewBox="0 0 101 100" fill="none" xmlns="http://www.w3.org/2000/svg">
<circle cx="50.5" cy="50" r="50" fill="#FDE2E5"/>
<path d="M27.5833 70.7917C27.5833 71.9584 28.5208 72.8959 29.6875 72.8959H56.75C57.9167 72.8959 58.8542 71.9584 58.8542 70.7917V68.75H27.5833V70.7917ZM43.2083 43.7292C35.3958 43.7292 27.5833 47.9167 27.5833 56.25H58.8333C58.8333 47.9167 51.0208 43.7292 43.2083 43.7292ZM33.0417 52.0834C35.3542 48.8542 40.2708 47.8959 43.2083 47.8959C46.1458 47.8959 51.0625 48.8542 53.375 52.0834H33.0417ZM27.5833 60.4167H58.8333V64.5834H27.5833V60.4167ZM63 35.4167V27.0834H58.8333V35.4167H48.4167L48.8958 39.5834H68.8125L65.8958 68.75H63V72.9167H66.5833C68.3333 72.9167 69.7708 71.5625 69.9792 69.8542L73.4167 35.4167H63Z" fill="#F46F7C"/>
</svg>
