<svg width="101" height="100" viewBox="0 0 101 100" fill="none" xmlns="http://www.w3.org/2000/svg">
<circle cx="50.5" cy="50" r="50" fill="#FDE2E5"/>
<path d="M25.5 37.5C25.5 37.5 25.5 31.25 31.75 31.25H69.25C69.25 31.25 75.5 31.25 75.5 37.5V56.25C75.5 56.25 75.5 62.5 69.25 62.5H56.75C56.75 64.5833 57.0104 66.1458 57.5312 67.1875H59.875C60.7379 67.1875 61.4375 67.8871 61.4375 68.75C61.4375 69.6129 60.7379 70.3125 59.875 70.3125H41.125C40.2621 70.3125 39.5625 69.6129 39.5625 68.75C39.5625 67.8871 40.2621 67.1875 41.125 67.1875H43.4688C43.9896 66.1458 44.25 64.5833 44.25 62.5H31.75C31.75 62.5 25.5 62.5 25.5 56.25V37.5ZM29.8702 34.8267C29.5404 35.0465 29.2816 35.362 29.0763 35.7725C28.865 36.1953 28.7437 36.6559 28.6801 37.0372C28.6496 37.2204 28.6355 37.3663 28.6293 37.4541C28.6267 37.4905 28.6255 37.5157 28.625 37.5282V56.25C28.625 57.2657 28.8699 57.8197 29.0767 58.1298C29.2965 58.4596 29.612 58.7184 30.0225 58.9237C30.4453 59.135 30.9059 59.2563 31.2872 59.3199C31.4704 59.3504 31.6163 59.3645 31.7041 59.3707C31.7405 59.3733 31.7658 59.3745 31.7782 59.375H69.25C70.2657 59.375 70.8197 59.1301 71.1298 58.9233C71.4596 58.7035 71.7184 58.388 71.9237 57.9775C72.135 57.5547 72.2563 57.0941 72.3199 56.7128C72.3504 56.5296 72.3645 56.3837 72.3707 56.2959C72.3733 56.2595 72.3745 56.2342 72.375 56.2218V37.5C72.375 36.4843 72.1301 35.9303 71.9233 35.6202C71.7035 35.2904 71.388 35.0316 70.9775 34.8263C70.5547 34.615 70.0941 34.4937 69.7128 34.4301C69.5296 34.3996 69.3837 34.3855 69.2959 34.3793C69.2595 34.3767 69.2343 34.3755 69.2218 34.375H31.75C30.7343 34.375 30.1803 34.6199 29.8702 34.8267Z" fill="#F46F7C"/>
</svg>
