<svg width="24" height="25" viewBox="0 0 24 25" fill="none" xmlns="http://www.w3.org/2000/svg">
<path d="M22 9.11093V17.2529C22.0001 18.0831 21.6824 18.8818 21.1123 19.4852C20.5422 20.0886 19.7628 20.4509 18.934 20.4979L18.75 20.5029H5.25C4.41986 20.503 3.62117 20.1854 3.01777 19.6153C2.41437 19.0451 2.052 18.2657 2.005 17.4369L2 17.2529V9.11093L11.652 14.1669C11.7594 14.2232 11.8788 14.2526 12 14.2526C12.1212 14.2526 12.2406 14.2232 12.348 14.1669L22 9.11093ZM5.25 4.50293H18.75C19.5556 4.50283 20.3325 4.80193 20.93 5.3422C21.5276 5.88247 21.9032 6.62541 21.984 7.42693L12 12.6569L2.016 7.42693C2.09352 6.65724 2.44305 5.94045 3.00175 5.40539C3.56045 4.87034 4.29168 4.55212 5.064 4.50793L5.25 4.50293H18.75H5.25Z" fill="#1F1F1F"/>
</svg>
