<svg width="101" height="100" viewBox="0 0 101 100" fill="none" xmlns="http://www.w3.org/2000/svg">
<circle cx="50.5" cy="50" r="50" fill="#FDE2E5"/>
<g clip-path="url(#clip0_5_93)">
<path d="M34.7812 29.2188C35.0746 28.8757 35.4389 28.6003 35.8489 28.4115C36.2588 28.2227 36.7049 28.125 37.1562 28.125H63.8438C64.2951 28.125 64.7412 28.2227 65.1511 28.4115C65.5611 28.6003 65.9254 28.8757 66.2188 29.2188L74.3719 38.7312C75.0998 39.5807 75.5 40.6625 75.5 41.7812V42.5781C75.5002 44.1249 75.0171 45.6331 74.1182 46.8919C73.2193 48.1508 71.9496 49.0973 70.4865 49.5992C69.0234 50.1011 67.44 50.1334 65.9577 49.6915C64.4754 49.2495 63.1682 48.3555 62.2188 47.1344C61.5254 48.0274 60.637 48.7499 59.6214 49.2466C58.6057 49.7433 57.4899 50.001 56.3594 50C55.2288 50.0013 54.1129 49.7437 53.0972 49.2469C52.0816 48.7502 51.1931 48.0276 50.5 47.1344C49.8069 48.0276 48.9184 48.7502 47.9028 49.2469C46.8871 49.7437 45.7712 50.0013 44.6406 50C43.51 50.0013 42.3941 49.7437 41.3785 49.2469C40.3628 48.7502 39.4744 48.0276 38.7812 47.1344C37.8318 48.3555 36.5246 49.2495 35.0423 49.6915C33.56 50.1334 31.9766 50.1011 30.5135 49.5992C29.0504 49.0973 27.7807 48.1508 26.8818 46.8919C25.9829 45.6331 25.4998 44.1249 25.5 42.5781V41.7812C25.5 40.6625 25.9002 39.5807 26.6281 38.7312L34.7844 29.2156L34.7812 29.2188ZM40.3438 42.5781C40.3438 43.7177 40.7965 44.8107 41.6023 45.6165C42.4081 46.4223 43.501 46.875 44.6406 46.875C45.7802 46.875 46.8732 46.4223 47.679 45.6165C48.4848 44.8107 48.9375 43.7177 48.9375 42.5781C48.9375 42.1637 49.1021 41.7663 49.3951 41.4733C49.6882 41.1802 50.0856 41.0156 50.5 41.0156C50.9144 41.0156 51.3118 41.1802 51.6049 41.4733C51.8979 41.7663 52.0625 42.1637 52.0625 42.5781C52.0625 43.7177 52.5152 44.8107 53.321 45.6165C54.1268 46.4223 55.2198 46.875 56.3594 46.875C57.499 46.875 58.5919 46.4223 59.3977 45.6165C60.2035 44.8107 60.6562 43.7177 60.6562 42.5781C60.6562 42.1637 60.8209 41.7663 61.1139 41.4733C61.4069 41.1802 61.8043 41.0156 62.2188 41.0156C62.6332 41.0156 63.0306 41.1802 63.3236 41.4733C63.6166 41.7663 63.7812 42.1637 63.7812 42.5781C63.7812 43.7177 64.234 44.8107 65.0398 45.6165C65.8456 46.4223 66.9385 46.875 68.0781 46.875C69.2177 46.875 70.3107 46.4223 71.1165 45.6165C71.9223 44.8107 72.375 43.7177 72.375 42.5781V41.7812C72.375 41.4088 72.242 41.0487 72 40.7656L63.8438 31.25H37.1562L29 40.7656C28.758 41.0487 28.625 41.4088 28.625 41.7812V42.5781C28.625 43.7177 29.0777 44.8107 29.8835 45.6165C30.6893 46.4223 31.7823 46.875 32.9219 46.875C34.0615 46.875 35.1544 46.4223 35.9602 45.6165C36.766 44.8107 37.2188 43.7177 37.2188 42.5781C37.2188 42.1637 37.3834 41.7663 37.6764 41.4733C37.9694 41.1802 38.3668 41.0156 38.7812 41.0156C39.1957 41.0156 39.5931 41.1802 39.8861 41.4733C40.1791 41.7663 40.3438 42.1637 40.3438 42.5781ZM30.1875 51.5625C30.6019 51.5625 30.9993 51.7271 31.2924 52.0201C31.5854 52.3132 31.75 52.7106 31.75 53.125V71.875H34.875V56.25C34.875 55.4212 35.2042 54.6263 35.7903 54.0403C36.3763 53.4542 37.1712 53.125 38 53.125H47.375C48.2038 53.125 48.9987 53.4542 49.5847 54.0403C50.1708 54.6263 50.5 55.4212 50.5 56.25V71.875H69.25V53.125C69.25 52.7106 69.4146 52.3132 69.7076 52.0201C70.0007 51.7271 70.3981 51.5625 70.8125 51.5625C71.2269 51.5625 71.6243 51.7271 71.9174 52.0201C72.2104 52.3132 72.375 52.7106 72.375 53.125V71.875H73.9375C74.3519 71.875 74.7493 72.0396 75.0424 72.3326C75.3354 72.6257 75.5 73.0231 75.5 73.4375C75.5 73.8519 75.3354 74.2493 75.0424 74.5424C74.7493 74.8354 74.3519 75 73.9375 75H27.0625C26.6481 75 26.2507 74.8354 25.9576 74.5424C25.6646 74.2493 25.5 73.8519 25.5 73.4375C25.5 73.0231 25.6646 72.6257 25.9576 72.3326C26.2507 72.0396 26.6481 71.875 27.0625 71.875H28.625V53.125C28.625 52.7106 28.7896 52.3132 29.0826 52.0201C29.3757 51.7271 29.7731 51.5625 30.1875 51.5625ZM38 71.875H47.375V56.25H38V71.875ZM53.625 56.25C53.625 55.4212 53.9542 54.6263 54.5403 54.0403C55.1263 53.4542 55.9212 53.125 56.75 53.125H63C63.8288 53.125 64.6237 53.4542 65.2097 54.0403C65.7958 54.6263 66.125 55.4212 66.125 56.25V65.625C66.125 66.4538 65.7958 67.2487 65.2097 67.8347C64.6237 68.4208 63.8288 68.75 63 68.75H56.75C55.9212 68.75 55.1263 68.4208 54.5403 67.8347C53.9542 67.2487 53.625 66.4538 53.625 65.625V56.25ZM63 56.25H56.75V65.625H63V56.25Z" fill="#F74C5D"/>
</g>
<defs>
<clipPath id="clip0_5_93">
<rect width="50" height="50" fill="white" transform="translate(25.5 25)"/>
</clipPath>
</defs>
</svg>
