<svg width="24" height="25" viewBox="0 0 24 25" fill="none" xmlns="http://www.w3.org/2000/svg">
<path d="M20.756 5.89824L18.2599 3.40449C18.0838 3.22764 17.8746 3.08732 17.6441 2.99159C17.4136 2.89587 17.1665 2.84662 16.9169 2.84668C16.4084 2.84668 15.9302 3.0459 15.5716 3.40449L12.8857 6.09043C12.7088 6.26651 12.5685 6.47579 12.4728 6.70626C12.3771 6.93673 12.3278 7.18384 12.3279 7.4334C12.3279 7.94199 12.5271 8.42012 12.8857 8.77871L14.8498 10.7428C14.39 11.7561 13.7508 12.678 12.963 13.4639C12.1772 14.2536 11.2554 14.8951 10.2419 15.3576L8.27788 13.3936C8.10181 13.2167 7.89252 13.0764 7.66205 12.9807C7.43158 12.8849 7.18447 12.8357 6.93491 12.8357C6.42632 12.8357 5.94819 13.035 5.5896 13.3936L2.90132 16.0771C2.72425 16.2536 2.58381 16.4632 2.48808 16.6941C2.39235 16.925 2.34322 17.1725 2.34351 17.4225C2.34351 17.9311 2.54273 18.4092 2.90132 18.7678L5.39273 21.2592C5.9646 21.8334 6.75444 22.1592 7.56538 22.1592C7.73648 22.1592 7.90054 22.1451 8.06226 22.117C11.2216 21.5967 14.3552 19.9162 16.8841 17.3896C19.4107 14.8654 21.0888 11.7342 21.6162 8.56543C21.7755 7.59746 21.4544 6.60137 20.756 5.89824Z" fill="#1F1F1F"/>
</svg>
